<?xml version="1.0" encoding="UTF-8"?>
<svg id="Layer_1" data-name="Layer 1" xmlns="http://www.w3.org/2000/svg" viewBox="0 0 512 512">
  <defs>
    <style>
      .cls-1 {
        fill: #1a1a18;
      }
    </style>
  </defs>
  <path class="cls-1" d="M417.12,25.8h-225.44c-39.92,0-72.39,32.47-72.39,72.39v17.79h-24.4c-39.92,0-72.39,32.47-72.39,72.39v225.44c0,39.92,32.47,72.39,72.39,72.39h225.44c39.92,0,72.39-32.47,72.39-72.39v-17.79h24.4c39.92,0,72.39-32.47,72.39-72.39V98.19c0-39.92-32.47-72.39-72.39-72.39ZM357.9,413.81c0,20.72-16.86,37.58-37.58,37.58H94.88c-20.72,0-37.58-16.86-37.58-37.58v-225.44c0-20.72,16.86-37.58,37.58-37.58h225.44c20.72,0,37.58,16.86,37.58,37.58v225.44ZM454.69,323.63c0,20.75-16.82,37.58-37.58,37.58h-17.71c-3.69,0-6.69-2.99-6.69-6.69v-166.16c0-39.98-32.41-72.39-72.39-72.39h-159.54c-3.69,0-6.69-2.99-6.69-6.69v-11.1c0-20.75,16.82-37.58,37.58-37.58h225.44c20.75,0,37.58,16.82,37.58,37.58v225.44Z"/>
</svg>