<?xml version="1.0" encoding="UTF-8"?>
<svg id="Layer_1" data-name="Layer 1" xmlns="http://www.w3.org/2000/svg" viewBox="0 0 512 512">
  <defs>
    <style>
      .cls-1 {
        fill: #1a1a18;
      }
    </style>
  </defs>
  <path class="cls-1" d="M346.1,107.78l-79.99,79.99c-5.59,5.59-14.64,5.59-20.23,0l-79.99-79.99c-16.26-16.26-43.17-16.57-59.12,0-15.45,16.05-15.26,41.59.56,57.41l80.56,80.56c5.59,5.59,5.59,14.64,0,20.23l-79.99,79.99c-16.26,16.26-16.57,43.17,0,59.12,16.05,15.45,41.59,15.26,57.41-.56l80.56-80.56c5.59-5.59,14.64-5.59,20.23,0l79.99,79.99c16.26,16.26,43.17,16.57,59.12,0,15.45-16.05,15.26-41.59-.56-57.41l-80.56-80.56c-5.59-5.59-5.59-14.64,0-20.23l80.56-80.56c15.82-15.82,16.01-41.36.56-57.41-15.94-16.56-42.86-16.25-59.12,0Z"/>
</svg>