<?xml version="1.0" encoding="UTF-8"?>
<svg id="Layer_1" data-name="Layer 1" xmlns="http://www.w3.org/2000/svg" viewBox="0 0 512 512">
  <defs>
    <style>
      .cls-1 {
        fill: #1a1a18;
      }
    </style>
  </defs>
  <path id="Cut" class="cls-1" d="M113.96,451.2c16.13-7.23,28.43-20.02,36.43-35.31.36-.64.75-1.17,1.11-1.83,28.15-51.2,10.2-90.3,91.82-126.89,45.88-20.57,259.01-116.12,259.01-116.12-13.58-35.47-34.12-55.39-88.71-30.92l-179.24,80.36c-71.07-35.35-55.83-73.36-82.87-122.54-.36-.66-.75-1.19-1.11-1.83-8-15.29-20.3-28.08-36.43-35.31-38.42-17.23-82.64,2.6-98.55,44.18-15.92,41.59,2.4,89.44,40.82,106.67h0c20.35,9.13,43.22,19.38,60.33,27.05,15.28,6.85,26.03,11.67,26.03,11.67l12.55,5.63-12.55,5.63s-10.74,4.82-26.03,11.67c-17.12,7.67-39.98,17.93-60.33,27.05h0C17.81,317.57-.5,365.43,15.41,407.02c15.91,41.59,60.13,61.41,98.55,44.18h0ZM67.78,181.48c-23.09-10.35-34.06-39.01-24.49-64,9.57-24.99,36.04-36.86,59.13-26.51,23.09,10.35,34.06,39.01,24.49,64-9.56,24.99-36.04,36.86-59.13,26.51h0ZM218.9,256c0-9.02,6.75-16.33,15.09-16.33s15.09,7.31,15.09,16.33-6.75,16.33-15.09,16.33-15.09-7.31-15.09-16.33ZM43.29,394.52c-9.56-24.99,1.4-53.65,24.49-64,23.09-10.35,49.57,1.52,59.13,26.51,9.57,24.99-1.4,53.65-24.49,64-23.09,10.35-49.57-1.52-59.13-26.51ZM266.08,305.73c17.87-8.01,46.85-21,78.84-35.35,73.77,33.07,157.41,70.57,157.41,70.57-13.58,35.47-34.12,55.39-88.71,30.92l-147.54-66.15Z"/>
</svg>