<?xml version="1.0" encoding="UTF-8"?>
<svg id="Layer_1" data-name="Layer 1" xmlns="http://www.w3.org/2000/svg" viewBox="0 0 512 512">
  <defs>
    <style>
      .cls-1 {
        fill: #1a1a18;
      }
    </style>
  </defs>
  <path class="cls-1" d="M312.39,49.28L14.78,346.88c-6.33,6.33-6.33,16.6,0,22.93l92.91,92.91c3.04,3.04,7.17,4.75,11.47,4.75h137.98c4.3-.01,8.42-1.72,11.47-4.76l228.61-228.61c6.33-6.33,6.33-16.6,0-22.93L335.32,49.28c-6.33-6.33-16.6-6.33-22.93,0ZM248.03,445.48h-119.77c-4.3.01-8.43-1.7-11.47-4.74l-70.92-70.92c-6.33-6.33-6.33-16.6,0-22.93l108.87-108.87c6.33-6.33,16.6-6.33,22.93,0l130.8,130.8c6.33,6.33,6.33,16.6,0,22.93l-48.98,48.98c-3.04,3.04-7.17,4.75-11.47,4.75Z"/>
</svg>