<?xml version="1.0" encoding="UTF-8"?>
<svg id="Layer_1" data-name="Layer 1" xmlns="http://www.w3.org/2000/svg" viewBox="0 0 512 512">
  <defs>
    <style>
      .cls-1 {
        fill: #1a1a18;
      }
    </style>
  </defs>
  <path class="cls-1" d="M474.03,203.87L290.85,20.69c-3.96-3.96-10.37-3.96-14.33,0L65.1,232.12c-3.96,3.96-3.96,10.37,0,14.33l183.18,183.18c23.84,23.84,62.49,23.84,86.33,0l139.43-139.43c23.84-23.84,23.84-62.49,0-86.33ZM451.77,239.28H115.15c-6.77,0-10.17-8.19-5.38-12.98L278.31,57.77c2.97-2.97,7.78-2.97,10.75,0l165.54,165.54c1.23,1.23,2.35,2.54,3.35,3.91,3.66,5.01.03,12.07-6.17,12.07Z"/>
  <path class="cls-1" d="M20.09,444.32c0,27.59,22.37,49.96,49.96,49.96s49.96-22.37,49.96-49.96-49.96-96.27-49.96-96.27c0,0-49.96,68.67-49.96,96.27Z"/>
</svg>