<?xml version="1.0" encoding="UTF-8"?>
<svg id="Layer_1" data-name="Layer 1" xmlns="http://www.w3.org/2000/svg" viewBox="0 0 512 512">
  <defs>
    <style>
      .cls-1 {
        fill: #1a1a18;
      }
    </style>
  </defs>
  <path class="cls-1" d="M463.04,106.34c-15.75-6.52-33.72-2.95-45.78,9.11l-110.85,110.85c-16.38,16.38-16.38,43.03,0,59.4l110.85,110.85c8.06,8.06,18.75,12.32,29.66,12.32,5.42,0,10.89-1.05,16.12-3.22,15.75-6.53,25.93-21.76,25.93-38.81v-221.7c0-17.05-10.18-32.28-25.93-38.81Z"/>
  <path class="cls-1" d="M94.74,115.45c-12.06-12.06-30.02-15.63-45.78-9.11-15.75,6.53-25.93,21.76-25.93,38.81v221.7c0,17.05,10.18,32.28,25.93,38.81,5.23,2.17,10.7,3.22,16.12,3.22,10.91,0,21.61-4.27,29.66-12.32l110.85-110.85c7.93-7.93,12.3-18.48,12.3-29.7s-4.37-21.77-12.3-29.7l-110.85-110.85ZM180.13,260.25l-110.85,110.85c-2.47,2.47-5.16,1.88-6.55,1.3-1.38-.57-3.71-2.06-3.71-5.55v-221.7c0-3.49,2.32-4.98,3.71-5.55.61-.25,1.46-.51,2.44-.51,1.26,0,2.72.42,4.1,1.81l110.85,110.85c1.53,1.53,1.76,3.32,1.76,4.25s-.23,2.72-1.76,4.25Z"/>
  <path class="cls-1" d="M256,103.12c-9.94,0-18,8.06-18,18v269.77c0,9.94,8.06,18,18,18s18-8.06,18-18V121.12c0-9.94-8.06-18-18-18Z"/>
</svg>