<?xml version="1.0" encoding="UTF-8"?>
<svg id="Layer_1" data-name="Layer 1" xmlns="http://www.w3.org/2000/svg" viewBox="0 0 512 512">
  <defs>
    <style>
      .cls-1 {
        fill: #1a1a18;
      }
    </style>
  </defs>
  <path class="cls-1" d="M226.3,205.59c7.93,7.93,18.48,12.3,29.7,12.3s21.77-4.37,29.7-12.3l110.85-110.85c12.06-12.06,15.63-30.03,9.11-45.78-6.53-15.75-21.76-25.93-38.81-25.93h-221.7c-17.05,0-32.28,10.18-38.81,25.93-6.52,15.75-2.95,33.72,9.11,45.78l110.85,110.85Z"/>
  <path class="cls-1" d="M285.7,306.41c-7.93-7.93-18.48-12.3-29.7-12.3s-21.77,4.37-29.7,12.3l-110.85,110.85c-12.06,12.06-15.63,30.03-9.11,45.78,6.53,15.75,21.76,25.93,38.81,25.93h221.7c17.05,0,32.28-10.18,38.81-25.93,6.52-15.75,2.95-33.72-9.11-45.78l-110.85-110.85ZM372.4,449.26c-.57,1.38-2.06,3.71-5.55,3.71h-221.7c-3.49,0-4.97-2.32-5.55-3.71-.57-1.38-1.17-4.08,1.3-6.55l110.85-110.85c1.53-1.53,3.32-1.76,4.25-1.76s2.72.23,4.25,1.76l110.85,110.85c2.47,2.47,1.88,5.16,1.3,6.55Z"/>
  <path class="cls-1" d="M121.12,274h269.77c9.94,0,18-8.06,18-18s-8.06-18-18-18H121.12c-9.94,0-18,8.06-18,18s8.06,18,18,18Z"/>
</svg>