<?xml version="1.0" encoding="UTF-8"?>
<svg id="Layer_1" data-name="Layer 1" xmlns="http://www.w3.org/2000/svg" viewBox="0 0 512 512">
  <defs>
    <style>
      .cls-1 {
        fill: #1a1a18;
      }
    </style>
  </defs>
  <path class="cls-1" d="M451.08,485.47H60.92c-18.97,0-34.4-15.43-34.4-34.4V60.92c0-18.97,15.43-34.4,34.4-34.4h390.16c18.97,0,34.4,15.43,34.4,34.4v390.16c0,18.97-15.43,34.4-34.4,34.4ZM60.92,44.53c-9.04,0-16.4,7.36-16.4,16.4v390.16c0,9.04,7.36,16.4,16.4,16.4h390.16c9.04,0,16.4-7.36,16.4-16.4V60.92c0-9.04-7.36-16.4-16.4-16.4H60.92Z"/>
</svg>