<?xml version="1.0" encoding="UTF-8"?>
<svg id="Layer_1" data-name="Layer 1" xmlns="http://www.w3.org/2000/svg" viewBox="0 0 512 512">
  <defs>
    <style>
      .cls-1 {
        fill: #1a1a18;
      }
    </style>
  </defs>
  <path class="cls-1" d="M474,176.36c-32.9-90.1-121.02-151.61-216.88-151.61-127.49,0-230.84,103.36-230.84,230.84,0,36.14,8.51,72.1,24.87,104.34,20.29,39.97,52.28,73.63,91.14,95.96,19.71,11.32,41.09,19.7,63.25,24.76,11.38,2.6,22.99,4.37,34.64,5.17,10.87.75,26.9,3.54,36.69-1.68,2.83-1.51,5.18-3.82,7.09-6.41,4.48-6.06,6.65-13.79,5.98-21.29-.35-3.93-1.48-7.85-3.7-11.11-5.16-7.57-14.62-10.59-20.06-17.92-5.51-7.43-8.38-17.89-8.38-27,0-29.57,30-52.55,58.54-43.18,14.93,4.9,26.03,9.58,42.11,9.58,42.48,0,81.93-21.46,106.12-56.13,15.26-21.86,21.4-47.24,21.16-72.92-.19-20.83-4.59-41.86-11.72-61.4ZM121.01,282.23c-26.25,0-47.52-21.28-47.52-47.52s21.28-47.52,47.52-47.52,47.52,21.28,47.52,47.52-21.28,47.52-47.52,47.52ZM191.07,180.65c-26.25,0-47.52-21.28-47.52-47.52s21.28-47.52,47.52-47.52,47.52,21.28,47.52,47.52-21.28,47.52-47.52,47.52ZM269,133.12c0-26.25,21.28-47.52,47.52-47.52s47.52,21.28,47.52,47.52-21.28,47.52-47.52,47.52-47.52-21.28-47.52-47.52ZM387.44,286.33c-26.25,0-47.52-21.28-47.52-47.52s21.28-47.52,47.52-47.52,47.52,21.28,47.52,47.52-21.28,47.52-47.52,47.52Z"/>
</svg>