<?xml version="1.0" encoding="UTF-8"?>
<svg id="Layer_1" data-name="Layer 1" xmlns="http://www.w3.org/2000/svg" viewBox="0 0 512 512">
  <defs>
    <style>
      .cls-1 {
        fill: #1a1a18;
      }
    </style>
  </defs>
  <path class="cls-1" d="M345.18,177.55l-10.73-10.73-56.64-56.64c-5.94-5.94-15.57-5.94-21.51,0l-29.04,29.04c-5.94,5.94-5.94,15.57,0,21.51l9.5,9.5c5.94,5.94,5.94,15.57,0,21.51l-120.21,120.23c-44.02,43.09-70.1,114.81-78.23,139.83-1.77,5.43-.32,11.39,3.72,15.43l1.36,1.36,1.36,1.36c4.04,4.04,10,5.48,15.43,3.72,25.03-8.13,96.75-34.21,139.83-78.23l120.23-120.21c5.94-5.94,15.57-5.94,21.51,0l9.5,9.5c5.94,5.94,15.57,5.94,21.51,0l29.04-29.04c5.94-5.94,5.94-15.57,0-21.51l-56.64-56.64Z"/>
  <path class="cls-1" d="M472.26,80.77c-5.55-19.92-21.11-35.48-41.02-41.02-20.52-5.71-42.52.06-57.58,15.12l-32.95,32.95c-4.51,4.51-4.51,11.82,0,16.33l33.57,33.57,33.57,33.57c4.51,4.51,11.82,4.51,16.33,0l32.95-32.95c15.06-15.06,20.84-37.06,15.12-57.58Z"/>
</svg>