<?xml version="1.0" encoding="UTF-8"?>
<svg id="Layer_1" data-name="Layer 1" xmlns="http://www.w3.org/2000/svg" viewBox="0 0 512 512">
  <defs>
    <style>
      .cls-1 {
        fill: #1a1a18;
      }
    </style>
  </defs>
  <path class="cls-1" d="M424.42,215h-113.12c-7.9,0-14.3-6.4-14.3-14.3v-113.12c0-22.99-18.81-42.24-41.8-41.8-22.27.43-40.2,18.62-40.2,40.99v113.93c0,7.9-6.4,14.3-14.3,14.3h-113.12c-22.99,0-42.24,18.81-41.8,41.8.43,22.27,18.62,40.2,40.99,40.2h113.93c7.9,0,14.3,6.4,14.3,14.3v113.12c0,22.99,18.81,42.24,41.8,41.8s40.2-18.62,40.2-40.99v-113.93c0-7.9,6.4-14.3,14.3-14.3h113.93c22.38,0,40.57-17.93,40.99-40.2.44-22.99-18.81-41.8-41.8-41.8Z"/>
</svg>