<?xml version="1.0" encoding="UTF-8"?>
<svg id="Layer_1" data-name="Layer 1" xmlns="http://www.w3.org/2000/svg" viewBox="0 0 512 512">
  <defs>
    <style>
      .cls-1 {
        fill: #1a1a18;
      }
    </style>
  </defs>
  <path class="cls-1" d="M171.2,56.16L24.16,451.2c-1.62,4.35,1.6,8.98,6.24,8.98h147.04c3.68,0,6.66-2.98,6.66-6.66V58.48c0-7.42-10.31-9.28-12.9-2.32Z"/>
  <path class="cls-1" d="M487.84,451.2L340.8,56.16c-2.59-6.96-12.9-5.1-12.9,2.32v395.04c0,3.68,2.98,6.66,6.66,6.66h147.04c4.64,0,7.86-4.63,6.24-8.98Z"/>
  <path class="cls-1" d="M256,17.43c-6.58,0-11.91,5.33-11.91,11.91v453.31c0,6.58,5.33,11.91,11.91,11.91s11.91-5.33,11.91-11.91V29.34c0-6.58-5.33-11.91-11.91-11.91Z"/>
</svg>