<?xml version="1.0" encoding="UTF-8"?>
<svg id="Layer_1" data-name="Layer 1" xmlns="http://www.w3.org/2000/svg" viewBox="0 0 512 512">
  <defs>
    <style>
      .cls-1 {
        fill: #1a1a18;
      }
    </style>
  </defs>
  <path class="cls-1" d="M428.87,132.8c-32.91-47.97-82.53-80.26-139.72-90.91-57.19-10.65-115.11,1.61-163.08,34.51-13.36,9.16-25.59,19.75-36.52,31.52l-35.45-29.71c-3.84-3.21-9.64-.19-9.2,4.8l8.51,96.4c.27,3.09,3,5.37,6.09,5.1l96.4-8.47c4.99-.44,6.95-6.69,3.12-9.9l-34.93-29.28c8.27-8.67,17.47-16.51,27.45-23.35,78.57-53.9,186.34-33.83,240.24,44.74,26.11,38.06,35.83,84.01,27.38,129.38s-34.07,84.74-72.13,110.85c-38.06,26.11-84.01,35.83-129.38,27.38-45.38-8.45-84.74-34.07-110.85-72.13-2.18-3.17-4.25-6.43-6.22-9.74-3.64-6.13-11.42-8.37-17.8-5.19l-15.87,7.92c-7.04,3.51-9.71,12.26-5.73,19.05,2.67,4.57,5.51,9.05,8.51,13.41,32.91,47.97,82.53,80.26,139.72,90.91,13.45,2.51,26.94,3.74,40.33,3.74,43.55,0,86.06-13.09,122.75-38.26,47.97-32.91,80.26-82.53,90.91-139.72s-1.61-115.11-34.52-163.08Z"/>
  <path class="cls-1" d="M202.76,292.44c-8.84,7.39-21.24,11.09-37.21,11.09h-2.39v23.42h2.56c26.28-.53,46.01-7.2,59.21-20.02,13.2-12.82,19.8-30.09,19.8-51.83v-3.36c0-19.97-4.61-34.3-13.83-43-9.22-8.69-20.87-13.04-34.95-13.04-15.14,0-26.69,4.15-34.64,12.46s-11.93,19.12-11.93,32.44,3.49,23.39,10.47,31.29c6.98,7.9,16.75,11.84,29.3,11.84,11.57,0,19.99-4.11,25.28-12.3-1.99,9.14-5.88,16.15-11.67,21ZM209.7,256.25c-3.27,4.01-7.68,6.01-13.21,6.01-5.83,0-9.99-1.96-12.46-5.88-2.47-3.92-3.71-9.35-3.71-16.31,0-7.36,1.18-12.92,3.54-16.66,2.36-3.74,6.36-5.61,12.02-5.61,6.36,0,11.02,2.53,13.96,7.6,2.52,4.34,3.96,11.26,4.32,20.75-.68,3.9-2.16,7.27-4.46,10.09Z"/>
  <path class="cls-1" d="M299.8,329.51c14.97,0,26.38-4.45,34.25-13.34,7.87-8.9,11.8-20.59,11.8-35.09v-36.94c0-14.55-3.9-26.26-11.71-35.13-7.81-8.87-19.25-13.3-34.34-13.3s-26.42,4.45-34.2,13.34c-7.78,8.9-11.67,20.59-11.67,35.09v36.94c0,14.49,3.87,26.19,11.62,35.09,7.75,8.9,19.16,13.34,34.25,13.34ZM285.57,241.31c0-6.89,1.07-12.42,3.23-16.57,2.15-4.15,5.88-6.23,11.18-6.23s8.94,2.08,11.09,6.23c2.15,4.15,3.23,9.68,3.23,16.57v42.78c0,6.78-1.06,12.24-3.18,16.39-2.12,4.15-5.83,6.23-11.13,6.23s-9.03-2.08-11.18-6.23c-2.15-4.15-3.23-9.62-3.23-16.39v-42.78Z"/>
</svg>