<?xml version="1.0" encoding="UTF-8"?>
<svg id="Layer_1" data-name="Layer 1" xmlns="http://www.w3.org/2000/svg" viewBox="0 0 512 512">
  <defs>
    <style>
      .cls-1 {
        fill: #1a1a18;
      }
    </style>
  </defs>
  <path class="cls-1" d="M457.9,78.21l-35.45,29.71c-10.93-11.77-23.17-22.36-36.52-31.52-47.97-32.91-105.89-45.17-163.08-34.51-57.19,10.65-106.81,42.94-139.72,90.91-32.91,47.97-45.17,105.89-34.52,163.08s42.94,106.81,90.91,139.72c36.69,25.17,79.2,38.26,122.75,38.26,13.39,0,26.88-1.24,40.33-3.74,57.19-10.65,106.81-42.94,139.72-90.91,2.99-4.36,5.83-8.84,8.51-13.41,3.97-6.79,1.31-15.54-5.73-19.05l-15.87-7.92c-6.38-3.18-14.16-.94-17.8,5.19-1.96,3.31-4.04,6.56-6.22,9.74-26.11,38.06-65.48,63.67-110.85,72.13-45.37,8.45-91.32-1.27-129.38-27.38-38.06-26.11-63.68-65.48-72.13-110.85s1.27-91.32,27.38-129.38c53.9-78.57,161.67-98.64,240.24-44.74,9.98,6.85,19.17,14.68,27.45,23.35l-34.93,29.28c-3.84,3.21-1.87,9.46,3.12,9.9l96.4,8.47c3.09.27,5.81-2.01,6.09-5.1l8.51-96.4c.44-4.99-5.37-8.01-9.2-4.8Z"/>
  <path class="cls-1" d="M207.47,292.44c-8.84,7.39-21.24,11.09-37.21,11.09h-2.39v23.42h2.56c26.28-.53,46.01-7.2,59.21-20.02,13.2-12.82,19.8-30.09,19.8-51.83v-3.36c0-19.97-4.61-34.3-13.83-43-9.22-8.69-20.87-13.04-34.95-13.04-15.14,0-26.69,4.15-34.64,12.46s-11.93,19.12-11.93,32.44,3.49,23.39,10.47,31.29c6.98,7.9,16.75,11.84,29.3,11.84,11.57,0,19.99-4.11,25.28-12.3-1.99,9.14-5.88,16.15-11.67,21ZM214.4,256.25c-3.27,4.01-7.68,6.01-13.21,6.01-5.83,0-9.99-1.96-12.46-5.88-2.47-3.92-3.71-9.35-3.71-16.31,0-7.36,1.18-12.92,3.54-16.66,2.36-3.74,6.36-5.61,12.02-5.61,6.36,0,11.02,2.53,13.96,7.6,2.52,4.34,3.96,11.26,4.32,20.75-.68,3.9-2.16,7.27-4.46,10.09Z"/>
  <path class="cls-1" d="M304.5,195.71c-15.02,0-26.42,4.45-34.2,13.34-7.78,8.9-11.67,20.59-11.67,35.09v36.94c0,14.49,3.87,26.19,11.62,35.09,7.75,8.9,19.16,13.34,34.25,13.34s26.38-4.45,34.25-13.34c7.87-8.9,11.8-20.59,11.8-35.09v-36.94c0-14.55-3.9-26.26-11.71-35.13-7.81-8.87-19.25-13.3-34.34-13.3ZM319,284.08c0,6.78-1.06,12.24-3.18,16.39-2.12,4.15-5.83,6.23-11.13,6.23s-9.03-2.08-11.18-6.23c-2.15-4.15-3.23-9.62-3.23-16.39v-42.78c0-6.89,1.07-12.42,3.23-16.57,2.15-4.15,5.88-6.23,11.18-6.23s8.94,2.08,11.09,6.23c2.15,4.15,3.23,9.68,3.23,16.57v42.78Z"/>
</svg>