<?xml version="1.0" encoding="UTF-8"?>
<svg id="Layer_1" data-name="Layer 1" xmlns="http://www.w3.org/2000/svg" viewBox="0 0 512 512">
  <defs>
    <style>
      .cls-1 {
        fill: #1a1a18;
      }
    </style>
  </defs>
  <path class="cls-1" d="M317.16,83.88h0c-64.34-64.34-169.03-64.34-233.37,0-64.34,64.34-64.34,169.03,0,233.37,32.17,32.17,74.43,48.26,116.69,48.26s84.52-16.08,116.69-48.26c64.34-64.34,64.34-169.03,0-233.37ZM112,289.04c-23.63-23.63-36.65-55.05-36.65-88.48s13.01-64.84,36.65-88.47c24.39-24.39,56.43-36.59,88.48-36.59s64.08,12.2,88.48,36.59c48.78,48.79,48.78,128.17,0,176.95-48.79,48.79-128.16,48.79-176.95,0Z"/>
  <path class="cls-1" d="M466.37,417.71l-106.5-106.5c-3.16-3.16-8.4-2.82-11.09.75-5.18,6.88-10.89,13.49-17.16,19.75s-12.87,11.98-19.75,17.16c-3.57,2.69-3.91,7.93-.75,11.09l105.99,105.99c13.28,13.28,34.92,14.09,48.56,1.18,14.15-13.4,14.38-35.73.69-49.42Z"/>
  <path class="cls-1" d="M180.44,125.23c-19.44,0-35.26,15.82-35.26,35.26s15.82,35.26,35.26,35.26,35.26-15.82,35.26-35.26-15.82-35.26-35.26-35.26Z"/>
</svg>