<?xml version="1.0" encoding="UTF-8"?>
<svg id="Layer_1" data-name="Layer 1" xmlns="http://www.w3.org/2000/svg" viewBox="0 0 512 512">
  <defs>
    <style>
      .cls-1 {
        fill: #1a1a18;
      }
    </style>
  </defs>
  <path class="cls-1" d="M61.73,159.6l114.18,88.68c5.64,4.38,13.84.32,13.79-6.81l-.37-49.62c-.03-4.22,3.38-7.65,7.59-7.65h225.39c17.08,0,31.58-13.97,31.26-31.05-.31-16.56-13.83-29.88-30.46-29.88h-226.76c-4.17,0-7.56-3.37-7.59-7.54l-.37-49.92c-.05-7.06-8.17-11.02-13.76-6.7l-112.87,86.98c-4.43,3.41-4.44,10.09-.03,13.52Z"/>
  <path class="cls-1" d="M450.24,350.68l-112.87-86.98c-5.59-4.31-13.71-.36-13.76,6.7l-.37,49.92c-.03,4.17-3.42,7.54-7.59,7.54H89.69c-17.08,0-31.58,13.97-31.26,31.05.31,16.56,13.83,29.88,30.46,29.88h226.19c4.22,0,7.62,3.43,7.59,7.65l-.37,49.62c-.05,7.14,8.15,11.19,13.79,6.81l114.18-88.68c4.42-3.43,4.4-10.1-.03-13.52Z"/>
</svg>