<?xml version="1.0" encoding="UTF-8"?>
<svg id="Layer_1" data-name="Layer 1" xmlns="http://www.w3.org/2000/svg" viewBox="0 0 512 512">
  <defs>
    <style>
      .cls-1 {
        fill: #1a1a18;
      }
    </style>
  </defs>
  <rect class="cls-1" x="92.78" y="369.36" width="282.01" height="65" rx="13.85" ry="13.85"/>
  <path class="cls-1" d="M431.96,101.87l-18.55-18.55c-7.57-7.57-19.84-7.57-27.41,0l-192.15,192.15c-3.66,3.66-9.6,3.66-13.26,0l-54.59-54.59c-7.57-7.57-19.84-7.57-27.41,0l-18.55,18.55c-7.57,7.57-7.57,19.84,0,27.41l61.6,61.6c12.57,12.57,29.07,18.85,45.58,18.85s33.01-6.28,45.58-18.85l199.16-199.16c7.57-7.57,7.57-19.84,0-27.41Z"/>
</svg>